<svg xmlns="http://www.w3.org/2000/svg" width="662.2" height="662.2">
  <path d="M589.7 200.6v194a50 50 0 01-15 36.7c-10 10-22.2 15-36.8 15s-27-4.9-37.6-14.6a47 47 0 01-15.8-36l-.4-195h-76v194.2c0 14.3-5.3 26.4-15.8 36.4-10.6 10-23 15-37.3 15a46.7 46.7 0 01-34.8-14.6 48 48 0 01-14.1-34.7V269.8A145 145 0 00262 163.4a145 145 0 00-106.4-44.1c-41.9 0-78 14-108.7 41.9a134 134 0 00-46 103v252.4h65.6V271.4A83 83 0 0192 210a85 85 0 0162-25c23.7 0 44 8.2 61 24.6a79.8 79.8 0 0125.5 59.5c0 29.1-8.9 51.7-26.7 67.6a85.2 85.2 0 01-59 21c-13.8 0-27-2.7-39.5-8a76.3 76.3 0 01-30.1-22.3v78.5c24 12.1 47.4 18.2 70.4 18.2 25 0 50-7.3 74.6-21.7 2.7 29.4 14.7 55 35.8 76.8 24.3 25 53.8 37.5 88.6 37.5 19 0 35.2-2.5 48.8-7.5 13.6-5.1 27.3-13.8 41-26a125.5 125.5 0 0042.8 26.4c14.1 4.8 31.6 7.1 52.4 7.1a115 115 0 0087.8-38.3 130.3 130.3 0 0035.6-91.8V200.6h-73.3z"/>
</svg>
