<svg xmlns="http://www.w3.org/2000/svg" width="2878" height="488">
  <path d="M1012.8 292.6c0 10.7-5.1 19.3-15.3 25.7-8.7 5.3-19.4 8-32.2 8a51 51 0 01-30.6-9.4 29.4 29.4 0 01-13-25V10h-72.8v283.6c0 11-5 19.8-15.3 26.5-8.9 5.8-19.6 8.8-32.1 8.8-11 0-20.5-3.4-28.5-10.2-8-6.7-12.1-15.4-12.1-25.8V10h-70.4v274.5c0 30.4 10.7 56.1 32.3 77.2 21.6 21 47.5 31.6 78 31.6 17.5 0 32.8-2.6 45.9-7.8 13-5.3 25.5-13.9 37.5-25.9a105.5 105.5 0 0036.1 26.2c12.4 5 27.4 7.5 45 7.5a112 112 0 0080.2-31.6 103 103 0 0033.1-77.5V10h-65.8v282.5zm555.9-205.2c-13 0-25 1.9-36 5.6-11 3.7-22.8 9.7-35.3 18.2a128.5 128.5 0 00-44.6 48.6c-9.3 18.6-14 40.7-14 66.2v167l71.7.3V218.7c0-10.7 2.3-20.1 7-28.3a70.2 70.2 0 0120.5-21.8 64.1 64.1 0 0158.2-10.7V90a181 181 0 00-27.5-2.7zm-1023.3 216a81.8 81.8 0 01-27.6-63.6c0-25.3 9.2-46 27.6-62.4a89.1 89.1 0 0160.8-23 81 81 0 0134.5 7.3v-67A149.1 149.1 0 00497.3 133a141.6 141.6 0 00-44.6 105.6c0 42.4 14.8 78.5 44.4 108.4a145.9 145.9 0 00107.6 44.8 154 154 0 0037.5-4.6v-68.6a82.5 82.5 0 01-36 8 87.4 87.4 0 01-60.8-23.3zm-168-290.2c-12.6 0-22.2 3.7-29 11a38.3 38.3 0 00-10.1 26.9c0 10.7 3.4 20 10.3 27.9a36 36 0 0028.7 11.9c11.2 0 20.1-4 26.6-11.7a40.8 40.8 0 009.8-27c0-10.5-3-19.4-9.2-26.8a33.8 33.8 0 00-27.2-12.2zm-214 86c-39.6 0-74 13.3-102.9 39.7a126.7 126.7 0 00-43.4 97.4v239h62v-232c0-23 8-42.4 24.1-58.3a80.4 80.4 0 0158.6-23.7c22.4 0 41.7 7.8 57.8 23.4a75.5 75.5 0 0124.1 56.2c0 27.6-8.4 49-25.3 64a80.6 80.6 0 01-55.8 19.9c-13 0-25.5-2.6-37.4-7.7a72.1 72.1 0 01-28.5-21v74.2a147 147 0 0066.6 17.3c25.8 0 51.3-8 76.6-24.2 23-14.5 39.7-31.5 50.1-51 10.5-19.6 15.7-43.1 15.7-70.7 0-39.3-13.9-72.9-41.7-100.7a137.2 137.2 0 00-100.7-41.7zM344 392.6h65V109.6h-65v283zm1429-277.9l-73.4 125.6h-5.4V12.8h-62.8V394h62.8V265.4h4.6l76.2 127.1h73.1L1769.2 251l79.7-136.3H1773zm1020.3-20.3v183.5c0 13.7-4.7 25.3-14.2 34.7a47.4 47.4 0 01-34.8 14.2 50.7 50.7 0 01-35.6-13.8c-10-9.1-15-20.5-15-34l-.3-184.6h-72v183.8c0 13.6-5 25-15 34.4a49.5 49.5 0 01-35.2 14.2c-13 0-24-4.6-32.9-13.8a45.4 45.4 0 01-13.4-32.8V94.3h-72.3v178.2c0 33.1 11.5 61.5 34.4 85.2 23 23.8 51 35.6 83.9 35.6 17.8 0 33.2-2.4 46.1-7.2 12.9-4.8 25.8-13 38.9-24.6 13.5 12.1 27 20.5 40.3 25a156 156 0 0049.6 6.8c33 0 60.6-12.1 83-36.3a123.2 123.2 0 0033.8-86.8V94.3h-69.3zm-518-2.7c-48 0-86.1 16-114.4 48a152.5 152.5 0 00-38 104.6c0 40.6 12.4 74.9 37.2 102.7 27.6 31 64.8 46.4 111.8 46.4 48 0 86.1-16 114.5-48a152.5 152.5 0 0037.9-104.6c0-40.6-12.4-74.8-37.2-102.7-27.5-31-64.8-46.4-111.8-46.4zm66.3 208.6c-16.4 18.4-38.5 27.6-66.3 27.6-27 0-48.5-8.8-64.3-26.4a85.4 85.4 0 01-21-58.7c0-24 7.4-44.4 22.2-61 16.3-18.5 38.4-27.7 66.2-27.7 27 0 48.5 8.9 64.3 26.5 14 15.9 21 35.4 21 58.7 0 24-7.3 44.4-22.1 61zm-314.7 92.3h65V10.1h-65v382.4zm-54-373.2c-9 0-18.2 1.3-28 3.8a86 86 0 00-26 11.5c-14 9.4-24 20.6-30 33.4-6 13-9 28.3-9 46.1v279.2h62.8V186.6h36.7V126h-36.7c-.8-1.8-1.2-4.2-1.2-7.2 0-11 4-20.1 12-27.7 8.1-7.6 17.1-11.4 27-11.4h4.3c1.5 0 3 .2 4.6.7V20.8a72.2 72.2 0 00-16.5-1.5zM1260.3 83.5c-13.5 0-26.5 1.6-39 4.8v111.3l139.4-80.5a158.4 158.4 0 00-100.4-35.6zM1375 132.4l-93.6 54 136.4 78.8a158.6 158.6 0 00-42.7-132.8zM1106.2 202.5l96.5 55.7v-164a159.5 159.5 0 00-96.5 108.3zM1322.8 232v157c44.3-19 78.2-57.4 91-104.6l-91-52.5zM1102.5 222a158.7 158.7 0 0048 135.8l93.6-54.1-141.6-81.8zM1165.6 370.5a158.4 158.4 0 00138.6 25v-105l-138.6 80z"/>
</svg>
